<svg width="25" height="26" fill="none" xmlns="http://www.w3.org/2000/svg"><g clip-path="url(#clip0)" fill="#fff"><path d="M24.19 9.138h-5.808l-3.985-6.836a1.217 1.217 0 00-.745-.566 1.229 1.229 0 00-1.152.284 1.228 1.228 0 00-1.153-.285 1.217 1.217 0 00-.745.567L6.617 9.138H.81a.806.806 0 00-.81.801v2.068c0 .442.364.801.81.801h.05l.73 10.477c.059.85.779 1.517 1.64 1.517h18.538c.86 0 1.581-.666 1.64-1.517l.73-10.477h.052a.806.806 0 00.809-.8v-2.07a.806.806 0 00-.81-.8zM12.907 2.795a.444.444 0 01.813-.106l4.176 7.163c.122.21.049.48-.163.6a.445.445 0 01-.606-.16l-4.175-7.163a.433.433 0 01-.045-.334zm-.406 1.11l3.05 5.233h-6.1l3.05-5.232zM7.105 9.853L11.28 2.69a.444.444 0 01.813.106.433.433 0 01-.044.334l-4.176 7.163a.444.444 0 01-.606.16.438.438 0 01-.162-.6zm17.112 2.155a.026.026 0 01-.026.026h-1.67a.39.39 0 00-.392.388.39.39 0 00.392.387h.833l-.726 10.424a.86.86 0 01-.859.794H3.231a.86.86 0 01-.86-.794l-.725-10.424H20.85a.39.39 0 00.392-.387.39.39 0 00-.392-.388H.81a.026.026 0 01-.026-.026V9.94c0-.014.011-.026.026-.026h5.464c-.062.473.161.958.603 1.211a1.228 1.228 0 00.93.121c.317-.084.582-.285.745-.566l.447-.766h7.004l.446.766c.164.281.428.482.745.566a1.228 1.228 0 00.93-.121c.442-.253.665-.738.603-1.21h5.465c.014 0 .026.011.026.025v2.068z"/><path d="M13.335 16.582a.39.39 0 00-.392.388v4.549c0 .242-.199.44-.443.44a.442.442 0 01-.444-.44v-6.203a.443.443 0 01.887 0 .39.39 0 00.392.387.39.39 0 00.391-.387c0-.67-.55-1.215-1.226-1.215-.677 0-1.227.545-1.227 1.215v6.203c0 .67.55 1.215 1.227 1.215.676 0 1.226-.545 1.226-1.215v-4.55a.39.39 0 00-.391-.387zm3.34 0a.39.39 0 00-.391.388v4.549c0 .242-.2.44-.444.44a.442.442 0 01-.444-.44v-6.203c0-.243.2-.44.444-.44.245 0 .444.197.444.44a.39.39 0 00.391.387.39.39 0 00.392-.387c0-.67-.55-1.215-1.227-1.215-.676 0-1.226.545-1.226 1.215v6.203c0 .67.55 1.215 1.226 1.215.676 0 1.227-.545 1.227-1.215v-4.55a.39.39 0 00-.392-.387zm3.34 0a.39.39 0 00-.391.388v4.549c0 .242-.199.44-.444.44a.442.442 0 01-.443-.44v-6.203c0-.243.199-.44.443-.44.245 0 .444.197.444.44a.39.39 0 00.391.387.39.39 0 00.392-.387c0-.67-.55-1.215-1.227-1.215-.676 0-1.226.545-1.226 1.215v6.203c0 .67.55 1.215 1.226 1.215.677 0 1.227-.545 1.227-1.215v-4.55a.39.39 0 00-.392-.387zm-13.361 0a.39.39 0 00-.391.388v4.549c0 .242-.2.44-.444.44a.442.442 0 01-.443-.44v-6.203c0-.243.199-.44.443-.44.245 0 .444.197.444.44a.39.39 0 00.391.387.39.39 0 00.392-.387c0-.67-.55-1.215-1.227-1.215-.676 0-1.226.545-1.226 1.215v6.203c0 .67.55 1.215 1.226 1.215.677 0 1.227-.545 1.227-1.215v-4.55a.39.39 0 00-.392-.387zm3.341 0a.39.39 0 00-.392.388v4.549c0 .242-.199.44-.444.44a.442.442 0 01-.443-.44v-6.203c0-.243.199-.44.443-.44.245 0 .444.197.444.44a.39.39 0 00.392.387.39.39 0 00.391-.387c0-.67-.55-1.215-1.226-1.215-.677 0-1.227.545-1.227 1.215v6.203c0 .67.55 1.215 1.226 1.215.677 0 1.227-.545 1.227-1.215v-4.55a.39.39 0 00-.391-.387z"/></g><defs><clipPath id="clip0"><path fill="#fff" transform="translate(0 .867)" d="M0 0h25v24.762H0z"/></clipPath></defs></svg>