<svg width="40" height="40" fill="none" xmlns="http://www.w3.org/2000/svg"><path d="M24.667 11.333h-9.334a.667.667 0 110-1.333h9.334a.667.667 0 010 1.333z" fill="#000"/><path d="M2 6.667h8.667V2a2 2 0 012-2h14.666a2 2 0 012 2v4.667H38a2 2 0 012 2V38a2 2 0 01-2 2H2a2 2 0 01-2-2V8.667a2 2 0 012-2zM28 2a.667.667 0 00-.667-.667H12.667A.667.667 0 0012 2v4.667h16V2zm10 6H2a.667.667 0 00-.667.667v6h3.334v-3.334a2 2 0 012-2h4a2 2 0 012 2v3.334h14.666v-3.334a2 2 0 012-2h4a2 2 0 012 2v3.334h3.334v-6A.667.667 0 0038 8zm-26.667 3.333a.667.667 0 00-.666-.666h-4a.667.667 0 00-.667.666v7.334a2.667 2.667 0 105.333 0v-7.334zm22.667 0a.667.667 0 00-.667-.666h-4a.667.667 0 00-.666.666v7.334a2.667 2.667 0 105.333 0v-7.334zM2 38.667h36a.667.667 0 00.667-.667V16h-3.334v2.667a4 4 0 11-8 0V16H12.667v2.667a4 4 0 11-8 0V16H1.333v22c0 .368.299.667.667.667z" fill="#000"/><path d="M14 25.333h2.667v-2.666c0-.737.596-1.334 1.333-1.334h4c.736 0 1.333.597 1.333 1.334v2.666H26c.736 0 1.333.597 1.333 1.334v4c0 .736-.596 1.333-1.333 1.333h-2.667v2.667c0 .736-.596 1.333-1.333 1.333h-4a1.333 1.333 0 01-1.333-1.333V32H14a1.333 1.333 0 01-1.333-1.333v-4c0-.737.597-1.334 1.333-1.334zm0 5.334h3.333c.368 0 .667.298.667.666v3.334h4v-3.334c0-.368.299-.666.667-.666H26v-4h-3.333A.667.667 0 0122 26v-3.333h-4V26a.667.667 0 01-.667.667H14v4zm18-11.334h-1.333a.667.667 0 110-1.333H32a.667.667 0 010 1.333zm-22.667 0H8A.667.667 0 018 18h1.333a.667.667 0 110 1.333zm22.667-6h-1.333a.667.667 0 110-1.333H32a.667.667 0 010 1.333zm-22.667 0H8A.667.667 0 018 12h1.333a.667.667 0 110 1.333z" fill="#000"/></svg>