<svg width="40" height="40" fill="none" xmlns="http://www.w3.org/2000/svg"><path d="M39.982 12.772c-.149-3.404-1.322-6.6-3.304-9C34.67 1.338 32.05 0 29.298 0c-4.35 0-7.876 4.444-9.282 6.515C18.655 4.43 15.23 0 10.702 0c-2.75 0-5.371 1.34-7.38 3.772-1.982 2.4-3.155 5.596-3.303 9-.147 3.395.558 6.347 2.288 9.573 1.575 2.935 5.706 7.608 8.766 10.718C13.62 35.654 18.172 40 20.019 40c1.876 0 6.407-4.336 8.941-6.92 3.036-3.098 7.146-7.768 8.735-10.736 1.164-2.177 2.476-5.231 2.287-9.572zm-2.615 6.419h-1.65a6.3 6.3 0 00.193-1.557c0-1.302-.399-2.527-1.074-3.464.325-.146.623-.377.876-.687.457-.56.708-1.306.708-2.1 0-1.515-.931-2.768-2.128-2.942a4.1 4.1 0 00.026-.449c0-1.846-1.223-3.348-2.726-3.348-.9 0-1.7.54-2.196 1.369-.497-.823-1.293-1.357-2.19-1.357-1.502 0-2.724 1.502-2.724 3.348 0 .15.008.296.024.44-1.187.185-2.108 1.432-2.108 2.94 0 .791.25 1.536.706 2.096.253.31.552.544.879.69-.676.936-1.075 2.162-1.075 3.464 0 2.218 1.134 4.117 2.726 4.87l-1.31 4.071-4.288-9.952c-.135-.314-.4-.51-.689-.511h-.002c-.288 0-.552.195-.688.507l-3.407 7.813-.7-2.197c-.157-.494-.61-.737-1.012-.544-.402.193-.6.75-.443 1.244l1.317 4.133c.11.35.377.587.68.609.305.022.592-.175.736-.505l3.513-8.058 4.395 10.2c.136.316.402.511.69.511l.043-.001c.305-.02.572-.257.684-.606l2.05-6.368c.784-.011 1.547-.289 2.206-.796.672.518 1.453.797 2.254.797 1.256 0 2.385-.673 3.163-1.74h1.657l-.094.178c-1.21 2.262-4.597 6.407-8.427 10.313-4.66 4.753-7.303 6.478-7.943 6.478-.627 0-3.262-1.73-7.95-6.496-2.888-2.936-5.517-5.99-7.16-8.28h2.494c.317 0 .603-.235.723-.596l2.503-7.52.682 2.142c.158.494.61.738 1.013.544.401-.193.6-.75.443-1.243l-1.394-4.378c-.117-.365-.402-.607-.722-.61h-.006c-.317 0-.603.236-.723.597l-3.044 9.145H3.665l-.053-.097c-1.534-2.86-2.161-5.455-2.033-8.414.263-6.04 4.356-10.954 9.123-10.954 4.951 0 8.612 6.642 8.648 6.708.143.264.383.425.64.429.257.006.502-.148.65-.407.039-.068 3.91-6.73 8.659-6.73 4.767 0 8.86 4.914 9.122 10.955a14.907 14.907 0 01-1.054 6.316zm-11.136-4.654c.28-.127.478-.439.508-.804a3.905 3.905 0 01.242-1.073c.264-.686.712-1.237 1.265-1.562a2.265 2.265 0 011.163-.323c.375 0 .731.094 1.056.264.026.014.052.03.079.043.562.32 1.02.873 1.288 1.565l.016.04c.12.323.2.674.231 1.046.03.365.228.677.508.803 1.053.475 1.76 1.72 1.76 3.098 0 1.818-1.203 3.297-2.684 3.297-.64 0-1.26-.282-1.745-.794a.7.7 0 00-.509-.231.7.7 0 00-.508.231c-.486.512-1.106.794-1.746.794-1.48 0-2.684-1.479-2.684-3.297 0-1.378.707-2.623 1.76-3.098zm-2.022-2.415a1.169 1.169 0 01-.248-.738c0-.576.38-1.044.85-1.044.23 0 .445.11.608.31.157.196.243.454.241.726 0 .14-.024.274-.066.397-.014.037-.03.074-.043.111-.146.324-.424.543-.741.544h-.001a.772.772 0 01-.6-.306zm1.835-4.118c0-.788.522-1.429 1.163-1.429s1.163.641 1.163 1.429c0 .553-.258 1.033-.633 1.27a.966.966 0 01-.53.158c-.641 0-1.162-.64-1.162-1.428zm4.386-.012c0-.788.522-1.428 1.163-1.428.64 0 1.162.64 1.162 1.428 0 .787-.521 1.428-1.162 1.428a.968.968 0 01-.416-.096l-.085-.045c-.39-.23-.662-.72-.662-1.287zm3.581 4.436h-.001c-.317-.001-.595-.22-.741-.542l-.046-.116a1.271 1.271 0 01-.065-.394 1.15 1.15 0 01.243-.726.78.78 0 01.607-.31c.469 0 .85.468.85 1.044 0 .28-.089.542-.25.74a.769.769 0 01-.596.304z" fill="#000"/><path d="M13.69 19.545a1.056 1.056 0 00-.214-.492.857.857 0 00-.253-.207.626.626 0 00-.598 0 .744.744 0 00-.253.207.946.946 0 00-.17.312 1.151 1.151 0 00.073.9.81.81 0 00.35.353.686.686 0 00.299.075.721.721 0 00.552-.281.946.946 0 00.169-.312 1.15 1.15 0 00.045-.555z" fill="#000"/></svg>