<svg width="198" height="80" fill="none" xmlns="http://www.w3.org/2000/svg"><g filter="url(#filter0_d)"><path d="M15 19a7 7 0 017-7h32a7 7 0 017 7v31.562a7 7 0 01-7 7H37.226a4.83 4.83 0 00-3.672 1.692l-.418.49c-1.84 2.154-5.22 1.99-6.843-.332a4.331 4.331 0 00-3.55-1.85h-1.169A6.574 6.574 0 0115 50.988V19z" fill="#000"/></g><g clip-path="url(#clip0)" fill="#F4CB38"><path d="M42.311 35.366a6.34 6.34 0 00-4.808-3.75 6.386 6.386 0 00-5.782 1.987l-3.534 3.861a3.953 3.953 0 00-1.027 2.295 3.95 3.95 0 00.556 2.45 4 4 0 001.922 1.637c.808.33 1.682.392 2.529.18l.057-.015a7.998 7.998 0 016.227 1.06 4.037 4.037 0 002.448.65 4.03 4.03 0 002.357-.926 3.965 3.965 0 001.334-2.135 3.936 3.936 0 00-.213-2.501l-2.066-4.793zm-12.635-2.109c.887-.178 1.633-.738 2.1-1.576.445-.797.582-1.758.388-2.706-.196-.947-.702-1.777-1.426-2.34-.76-.59-1.668-.816-2.553-.637-1.782.36-2.897 2.28-2.486 4.282.328 1.595 1.527 2.766 2.902 2.995.35.058.713.055 1.075-.018zm6.009-2.486c2.092.348 4.12-1.289 4.52-3.65.4-2.36-.975-4.565-3.067-4.913-2.092-.348-4.12 1.29-4.52 3.65-.4 2.361.976 4.565 3.067 4.913zm6.374 2.142c.304.16.623.265.95.32 1.526.253 3.2-.6 4.053-2.195.492-.918.645-1.95.431-2.907-.224-1-.818-1.798-1.672-2.247-.855-.448-1.855-.487-2.817-.109-.918.362-1.695 1.067-2.186 1.985-1.037 1.938-.48 4.25 1.24 5.153zm8.074.83c-1.264-1.296-3.5-1.197-4.984.22-1.483 1.418-1.663 3.626-.402 4.922.46.473 1.05.76 1.685.866 1.107.184 2.354-.184 3.298-1.085 1.484-1.418 1.664-3.626.403-4.923z"/></g><path d="M91.446 28.286v12.6h-4.248v-4.644h-3.924v4.644h-4.248v-12.6h4.248v4.464h3.924v-4.464h4.248zm11.803 10.404h-4.788l-.846 2.196h-4.32l5.508-12.6h4.176l5.508 12.6h-4.392l-.846-2.196zm-1.17-3.06l-1.224-3.168-1.224 3.168h2.448zm14.322-7.344c1.164 0 2.178.192 3.042.576.864.384 1.53.936 1.998 1.656.468.72.702 1.56.702 2.52s-.234 1.8-.702 2.52c-.468.72-1.134 1.272-1.998 1.656-.864.384-1.878.576-3.042.576h-1.818v3.096h-4.248v-12.6h6.066zm-.27 6.228c.576 0 1.008-.126 1.296-.378.288-.264.432-.63.432-1.098 0-.468-.144-.828-.432-1.08-.288-.264-.72-.396-1.296-.396h-1.548v2.952h1.548zm14.641-6.228c1.164 0 2.178.192 3.042.576.864.384 1.53.936 1.998 1.656.468.72.702 1.56.702 2.52s-.234 1.8-.702 2.52c-.468.72-1.134 1.272-1.998 1.656-.864.384-1.878.576-3.042.576h-1.818v3.096h-4.248v-12.6h6.066zm-.27 6.228c.576 0 1.008-.126 1.296-.378.288-.264.432-.63.432-1.098 0-.468-.144-.828-.432-1.08-.288-.264-.72-.396-1.296-.396h-1.548v2.952h1.548zm16.063 1.8v4.572h-4.248V36.26l-4.752-7.974h4.482l2.574 4.356 2.592-4.356h4.104l-4.752 8.028zm19.094-8.028c1.164 0 2.178.192 3.042.576.864.384 1.53.936 1.998 1.656.468.72.702 1.56.702 2.52s-.234 1.8-.702 2.52c-.468.72-1.134 1.272-1.998 1.656-.864.384-1.878.576-3.042.576h-1.818v3.096h-4.248v-12.6h6.066zm-.27 6.228c.576 0 1.008-.126 1.296-.378.288-.264.432-.63.432-1.098 0-.468-.144-.828-.432-1.08-.288-.264-.72-.396-1.296-.396h-1.548v2.952h1.548zm19.051 3.168v3.204h-10.476v-12.6h10.242v3.204h-6.066v1.476h5.328v3.06h-5.328v1.656h6.3zm5.541-6.102h-3.69v-3.294h11.628v3.294h-3.69v9.306h-4.248V31.58z" fill="#fff"/><defs><clipPath id="clip0"><path fill="#fff" transform="matrix(.98643 .16417 -.16726 .98591 27.34 18.933)" d="M0 0h26.183v25.947H0z"/></clipPath><filter id="filter0_d" x="0" y="0" width="76" height="79.262" filterUnits="userSpaceOnUse" color-interpolation-filters="sRGB"><feFlood flood-opacity="0" result="BackgroundImageFix"/><feColorMatrix in="SourceAlpha" values="0 0 0 0 0 0 0 0 0 0 0 0 0 0 0 0 0 0 127 0"/><feOffset dy="3"/><feGaussianBlur stdDeviation="7.5"/><feColorMatrix values="0 0 0 0 1 0 0 0 0 1 0 0 0 0 1 0 0 0 0.33 0"/><feBlend in2="BackgroundImageFix" result="effect1_dropShadow"/><feBlend in="SourceGraphic" in2="effect1_dropShadow" result="shape"/></filter></defs></svg>